<svg width="23" height="12" viewBox="0 0 23 12" fill="none" xmlns="http://www.w3.org/2000/svg">
<path d="M3.14425 11.192C5.81625 11.192 7.41625 9.128 7.41625 4.616C7.41625 1.64 5.96025 0.28 4.04025 0.28C2.12025 0.28 0.60025 1.592 0.60025 3.848C0.60025 5.848 1.99225 7.192 3.83225 7.192C4.90425 7.192 5.92825 6.712 6.45625 5.736C6.24825 8.856 5.11225 10.376 3.09625 10.376C2.36025 10.376 1.57625 10.12 1.01625 9.832V10.776C1.60825 11.016 2.42425 11.192 3.14425 11.192ZM3.92825 6.424C2.47225 6.424 1.49625 5.224 1.49625 3.816C1.49625 2.232 2.52025 1.064 4.02425 1.064C5.56025 1.064 6.47225 2.36 6.47225 4.248C6.42425 5.464 5.28825 6.424 3.92825 6.424ZM8.9665 6.056H9.9585V5.064H8.9665V6.056ZM8.9665 11H9.9585V10.008H8.9665V11ZM16.1926 11H17.0886V8.056H18.6566V7.256H17.0886V0.28H16.1126L11.3286 7.4V8.056H16.1926V11ZM16.1926 7.256H12.3206L16.1926 1.544V7.256ZM21.6316 11H22.5276V0.183999L19.6316 0.695999V1.576L21.6316 1.208V11Z" fill="#011C34"/>
</svg>
